# xmcd
#
# Track frame offsets:
#	150
#	10728
#	25401
#	36714
#	50845
#	61635
#	69359
#	82046
#	92116
#	102378
#	114438
#
# Disc length: 1710 seconds
#
# Revision: 1
# Processed by: cddbd v1.5.2PL0 Copyright (c) Steve Scherf et al.
# Submitted via: audiograbber 1.83.01
#
DISCID=9106ac0b
DTITLE=Masshysteri - Vår Del Av Stan
DYEAR=2008
DGENRE=punk
TTITLE0=Vår Del Av Stan
TTITLE1=Hatkärlek
TTITLE2=Istiden
TTITLE3=Begrav Mig
TTITLE4=Liv Och Död
TTITLE5=Paranoid
TTITLE6=Falsk
TTITLE7=Tvivel
TTITLE8=Panik
TTITLE9=Lule
TTITLE10=Monoton Tid
EXTD=
EXTT0=
EXTT1=
EXTT2=
EXTT3=
EXTT4=
EXTT5=
EXTT6=
EXTT7=
EXTT8=
EXTT9=
EXTT10=
PLAYORDER=
